<svg width="103" height="103" viewBox="0 0 103 103" fill="none" xmlns="http://www.w3.org/2000/svg">
<path fill-rule="evenodd" clip-rule="evenodd" d="M51.5 103C79.9427 103 103 79.9427 103 51.5C103 23.0573 79.9427 0 51.5 0C23.0573 0 0 23.0573 0 51.5C0 79.9427 23.0573 103 51.5 103ZM45.6723 14H58.3277C59.9846 14 61.3277 15.3431 61.3277 17V38.6723C61.3277 40.3291 62.6709 41.6723 64.3277 41.6723L86 41.6723C87.6569 41.6723 89 43.0154 89 44.6723V57.3277C89 58.9846 87.6569 60.3277 86 60.3277L64.3277 60.3277C62.6709 60.3277 61.3277 61.6709 61.3277 63.3277V85C61.3277 86.6569 59.9846 88 58.3277 88H45.6723C44.0154 88 42.6723 86.6569 42.6723 85V63.3277C42.6723 61.6709 41.3291 60.3277 39.6723 60.3277L18 60.3277C16.3431 60.3277 15 58.9846 15 57.3277V44.6723C15 43.0154 16.3431 41.6723 18 41.6723H39.6723C41.3291 41.6723 42.6723 40.3291 42.6723 38.6723V17C42.6723 15.3431 44.0154 14 45.6723 14Z" fill="#3C58BC"/>
</svg>
